<svg xmlns="http://www.w3.org/2000/svg" xmlns:xlink="http://www.w3.org/1999/xlink" xmlns:svgjs="http://svgjs.dev/svgjs" version="1.1" viewBox="0.79 74.58 797.43 349.25"><g transform="matrix(1,0,0,1,-0.48484848484849863,0.20161943319837405)"><svg xmlns="http://www.w3.org/2000/svg" xmlns:xlink="http://www.w3.org/1999/xlink" viewBox="0 0 396 247" data-background-color="#ffffff" preserveAspectRatio="xMidYMid meet" height="498" width="800"><g id="tight-bounds" transform="matrix(1,0,0,1,0.2400000000000091,-0.09999999999999432)"><svg viewBox="0 0 395.52 247.2" height="247.2" width="395.52"><g><svg/></g><g><svg viewBox="0 0 395.52 247.2" height="247.2" width="395.52"><g><g><path d="M35.149 210.21c-4.117-0.528-12.069-0.792-23.856-0.792h-10.292l0-37.682 34.148 0zM1.001 37.518c5.489 0.352 11.541 0.528 18.156 0.528 6.615 0 11.295-0.352 14.039-1.056l22.66 38.474-54.855 0zM118.117 36.99c2.744 0.704 7.987 1.056 15.728 1.056 7.741 0 14.356-0.176 19.845-0.528l0 37.946h-57.321zM153.69 209.418h-10.292c-11.787 0-19.739 0.264-23.856 0.792l0-38.474 34.148 0zM259.986 209.946c-2.569-0.352-6.949-0.528-13.142-0.528h-14.936c-2.92 0-5.331 0.088-7.231 0.264l-0.105-0.264c0.352-0.598 0.528-1.284 0.527-2.058 0-0.774-0.07-1.583-0.211-2.428-0.141-0.88-0.475-2.428-1.003-4.645-0.563-2.252-1.407-5.471-2.533-9.658l-5.405-18.893 50.941 0-0.305 1.212c-4.117 16.397-6.263 25.844-6.439 28.342-0.352 4.715-0.317 7.459 0.106 8.234zM177.546 37.518c5.489 0.352 12.139 0.528 19.95 0.528 7.811 0 12.878-0.352 15.2-1.056l10.045 38.474h-34.339zM272.758 37.518c1.302 0.106 2.463 0.194 3.484 0.264h2.85c2.815 0.176 6.369 0.264 10.661 0.264 4.293 0 8.726-0.352 13.3-1.056l9.941 38.474-49.912 0zM359.104 37.518c5.137 0.352 11.875 0.528 20.214 0.528 8.339 0 13.406-0.352 15.201-1.056l-10.5 38.474-33.384 0zM357.415 172.948c-4.715 15.622-7.213 24.894-7.494 27.814-0.246 2.92-0.369 4.944-0.37 6.07 0 1.126 0.176 2.023 0.528 2.692l-0.264 0.422c-2.744-0.352-7.09-0.528-13.036-0.528-5.137 0-9.817 0-14.039 0-4.187 0-7.231 0.088-9.131 0.264l-0.106-0.264c0.317-0.598 0.475-1.284 0.475-2.058 0-0.774-0.035-1.548-0.105-2.323-0.106-0.774-0.352-2.252-0.739-4.433-0.387-2.182-1.003-5.436-1.847-9.764l-3.484-17.523-0.416-1.581 50.359 0z" fill="#ffffff" fill-rule="nonzero" stroke="none" stroke-width="1" stroke-linecap="butt" stroke-linejoin="miter" stroke-miterlimit="10" stroke-dasharray="" stroke-dashoffset="0" font-family="none" font-weight="none" font-size="none" text-anchor="none" style="mix-blend-mode: normal" data-fill-palette-color="tertiary"/></g></g><g transform="matrix(1,0,0,1,0,87.7216272372989)"><svg viewBox="0 0 395.52 71.75674552540218" height="71.75674552540218" width="395.52"><g><svg viewBox="0 0 395.52 71.75674552540218" height="71.75674552540218" width="395.52"><g><svg viewBox="0 0 487.0559106601186 88.36353923412507" height="71.75674552540218" width="395.52"><g transform="matrix(1,0,0,1,91.53591066011866,12.212327057682991)"><svg viewBox="0 0 395.52 63.93888511875909" height="63.93888511875909" width="395.52"><g><svg viewBox="0 0 395.52 63.93888511875909" height="63.93888511875909" width="395.52"><g><svg viewBox="0 0 395.52 63.93888511875909" height="63.93888511875909" width="395.52"><g transform="matrix(1,0,0,1,0,0)"><svg width="395.52" viewBox="4.32 -38.16 302.17 48.849999999999994" height="63.93888511875909" data-palette-color="#000000"><path d="M10.79-20.58L10.79 0.15Q9.62 0 6.27 0L6.27 0 4.32 0 4.32-32.57Q5.88-32.47 7.76-32.47 9.64-32.47 10.42-32.67L10.42-32.67 18.63-18.73 26.51-32.67Q27.29-32.47 29.49-32.47 31.69-32.47 33.25-32.57L33.25-32.57 33.25 0 31.3 0Q27.95 0 26.78 0.15L26.78 0.15 26.78-21.73 18.8-7.45 10.79-20.58ZM45.11 10.69L38.82 8.5 40.43 7.2Q44.06 4.25 46.46-1.51L46.46-1.51 47.58-4.22 38.23-25.51 45.07-25.51 50.93-10.77 56.37-25.51 63.4-25.51Q62.13-23.75 60.3-18.97L60.3-18.97 56.64-9.91Q49.29 7.37 45.11 10.69L45.11 10.69ZM77.51-5.37L77.51-5.37Q80.66-5.37 81.83-7.01L81.83-7.01 82.03-7.01 82.1-1.34Q80.9-0.15 77.66 0.24L77.66 0.24Q76.78 0.37 75.47 0.37 74.16 0.37 72.64-0.12 71.11-0.61 70.04-1.71L70.04-1.71Q67.82-3.98 67.82-8.81L67.82-8.81 67.82-19.9 64.13-19.9Q64.11-20.61 64.11-21.34L64.11-21.34 64.11-25.1Q64.11-25.51 64.13-25.51L64.13-25.51 67.82-25.51 67.82-32.47 73.8-32.47 73.8-25.51 80.51-25.51 80.51-19.9 73.8-19.9 73.8-9.94Q73.8-6.1 75.92-5.57L75.92-5.57Q76.61-5.37 77.51-5.37ZM93.67-16.97L93.67-2.73Q93.67-0.63 93.77 0L93.77 0 87.69 0 87.69-34.91 93.67-34.91 93.67-23.61Q96.82-26 100.16-26L100.16-26Q104.26-26 106.76-23.29L106.76-23.29Q109.2-20.58 109.2-16.11L109.2-16.11 109.2-6.4Q109.2-2.27 109.32-1.44 109.44-0.61 109.65-0.37 109.86-0.12 110 0.07L110 0.07 109.95 0.17Q107.98 0 107.07 0L107.07 0 105.34 0Q104.53 0 103.22 0.07L103.22 0.07 103.22-14.06Q103.22-17.43 101.73-19.04L101.73-19.04Q100.6-20.26 98.67-20.26L98.67-20.26Q95.82-20.26 93.67-16.97L93.67-16.97ZM120.89-28.83L115.4-32.79Q117.35-35.84 119.47-38.16L119.47-38.16 124.72-34.03Q123.67-32.74 122.77-31.49L122.77-31.49Q122.77-31.49 120.89-28.83L120.89-28.83ZM121.82-25.51L121.82-2.73Q121.82-0.63 121.91 0L121.91 0 115.71 0 115.71-25.51 121.82-25.51ZM148.08-8.33L148.64-2.37Q145.91 0.37 140.08 0.37L140.08 0.37Q134.41 0.37 130.82-3.08L130.82-3.08Q127.18-6.57 127.18-12.35L127.18-12.35Q127.18-18.24 130.77-22.02L130.77-22.02Q134.58-26 140.95-26L140.95-26Q145.47-26 148.52-24.02L148.52-24.02 147.55-17.77 147.38-17.8Q146.2-19.21 144.91-19.65L144.91-19.65Q142.81-20.39 140.71-20.39 138.61-20.39 137.41-19.85 136.22-19.31 135.36-18.36L135.36-18.36Q133.65-16.41 133.65-13.18L133.65-13.18Q133.65-7.47 137.61-5.71L137.61-5.71Q138.98-5.13 140.5-5.13 142.03-5.13 143.16-5.4 144.3-5.66 145.23-6.13L145.23-6.13Q147.2-7.1 147.91-8.4L147.91-8.4 148.08-8.33ZM182.6 0.02L182.55 0.1Q181.82 0 180.06 0L180.06 0 177.23 0Q176.4 0 175.86 0.05L175.86 0.05 175.84 0Q175.93-0.17 175.93-0.39 175.93-0.61 175.9-0.85 175.86-1.1 175.7-1.73 175.54-2.37 175.23-3.56L175.23-3.56 166.93-32.57Q168.49-32.47 170.71-32.47 172.93-32.47 173.59-32.67L173.59-32.67 179.35-10.57 184.97-32.57Q185.33-32.54 185.63-32.52L185.63-32.52 186.16-32.52Q186.97-32.47 188.19-32.47 189.41-32.47 190.71-32.67L190.71-32.67 196.42-10.57 201.33-32.57Q202.79-32.47 205.16-32.47 207.53-32.47 208.04-32.67L208.04-32.67 201.01-6.91Q199.67-2.47 199.59-1.64 199.52-0.81 199.52-0.49 199.52-0.17 199.62 0.02L199.62 0.02 199.57 0.1Q198.79 0 197.1 0L197.1 0Q195.64 0 194.44 0 193.24 0 192.71 0.05L192.71 0.05 192.68 0Q192.78-0.17 192.78-0.39 192.78-0.61 192.76-0.83 192.73-1.05 192.62-1.67 192.51-2.29 192.27-3.52L192.27-3.52 191.61-6.84 187.6-22.05 183.8-6.91Q182.62-2.25 182.58-1.54L182.58-1.54Q182.48-0.2 182.6 0.02L182.6 0.02ZM210.21-12.62L210.21-12.62Q210.21-15.31 211.13-17.76 212.04-20.21 213.75-22.05L213.75-22.05Q217.48-26 223.44-26L223.44-26Q229.37-26 232.87-22.27L232.87-22.27Q236.21-18.7 236.21-13.01L236.21-13.01Q236.21-7.32 232.77-3.59L232.77-3.59Q229.13 0.37 223.12 0.37L223.12 0.37Q216.92 0.37 213.41-3.52L213.41-3.52Q210.21-7.06 210.21-12.62ZM216.14-12.77L216.14-12.77Q216.14-11.23 216.65-9.79 217.17-8.35 218.12-7.32L218.12-7.32Q220.15-5.1 223.44-5.1L223.44-5.1Q226.49-5.1 228.25-7.28L228.25-7.28Q229.96-9.38 229.96-12.74L229.96-12.74Q229.96-16.16 228.2-18.26L228.2-18.26Q226.32-20.51 223.05-20.51L223.05-20.51Q219.73-20.51 217.85-18.12L217.85-18.12Q216.14-15.92 216.14-12.77ZM247.05-17.77L247.05-2.73Q247.05-0.63 247.15 0L247.15 0 241.07 0 241.07-25.51 247.05-25.51 247.05-23.63Q249.12-26 251.41-26 253.69-26 255.01-25.44L255.01-25.44 254.57-18.87 254.47-18.8Q253.62-20.31 250.93-20.31L250.93-20.31Q249.9-20.31 248.84-19.62 247.78-18.92 247.05-17.77L247.05-17.77ZM264.33-5.83L264.33-3.22Q264.33-1.12 264.5 0L264.5 0 258.35 0 258.35-34.91 264.33-34.91 264.33-13.53 275.49-25.51 282.74-25.51 273.12-15.38 278.61-7.89Q280.39-5.05 281.3-3.74L281.3-3.74 282.91-1.46Q283.64-0.51 284.13 0L284.13 0 280.27 0Q278.12 0 276.59 0.37L276.59 0.37 268.97-10.77 264.33-5.83ZM295.7 0.37L295.7 0.37Q288.82 0.37 285.32-2.15L285.32-2.15Q285.37-2.88 285.47-3.81L285.47-3.81 285.69-5.57Q285.89-7.3 285.93-7.73 285.98-8.15 286.01-8.19 286.03-8.23 286.4-7.8 286.76-7.37 287.79-6.76 288.82-6.15 290.16-5.69L290.16-5.69Q293.06-4.69 296.21-4.69L296.21-4.69Q300.44-4.69 300.44-7.5L300.44-7.5Q300.44-8.4 299.63-8.84L299.63-8.84Q298.19-9.57 295.39-9.95 292.6-10.33 290.82-11.06 289.04-11.79 287.91-12.82L287.91-12.82Q285.84-14.75 285.84-17.87L285.84-17.87Q285.84-21.68 288.77-23.85L288.77-23.85Q291.67-26 296.8-26L296.8-26Q301.88-26 305.47-23.12L305.47-23.12Q305.29-22.49 305.1-21.9L305.1-21.9Q304.54-20.29 304.27-19.58L304.27-19.58 303.71-18.14Q303.66-17.94 303.63-17.94L303.63-17.94Q303.59-17.94 303.24-18.46L303.24-18.46Q301.71-20.24 298.46-20.8L298.46-20.8Q297.46-21 296.41-21L296.41-21Q291.96-21 291.96-18.31L291.96-18.31Q291.96-17.38 292.89-16.89L292.89-16.89Q294.63-15.97 297.64-15.53 300.66-15.09 302.22-14.34 303.78-13.6 304.73-12.55L304.73-12.55Q306.49-10.64 306.49-7.5L306.49-7.5Q306.49-4.05 303.73-1.9L303.73-1.9Q300.85 0.37 295.7 0.37Z" opacity="1" transform="matrix(1,0,0,1,0,0)" fill="#000000" class="undefined-text-0" data-fill-palette-color="primary" id="text-0"/></svg></g></svg></g></svg></g></svg></g><g><svg viewBox="0 0 76.44147441682249 88.36353923412507" height="88.36353923412507" width="76.44147441682249"><g><svg xmlns="http://www.w3.org/2000/svg" xmlns:xlink="http://www.w3.org/1999/xlink" version="1.1" x="0" y="0" viewBox="17.3 12.2 65.4 75.6" style="enable-background:new 0 0 100 100;" xml:space="preserve" height="88.36353923412507" width="76.44147441682249" class="icon-icon-0" data-fill-palette-color="accent" id="icon-0"><path d="M50 12.2L17.3 31.1v37.8L50 87.8l32.7-18.9V31.1L50 12.2zM32.1 37.4L50 16l17 21.4H32.1zM67.3 39.4L50 70.4l-18.2-31H67.3zM48.1 71l-27.7-4.5 9.8-25.9L48.1 71zM68.9 40.7l10.7 25.9-27.7 4.5L68.9 40.7zM69.2 37.1L52.6 16l27 15.6L69.2 37.1zM29.8 37.1l-9.4-5.5 26.8-15.5L29.8 37.1zM28.8 38.8l-9.5 25V33.3L28.8 38.8zM49 73.2v11.7L20.9 68.7 49 73.2zM51 73.2l28.1-4.5L51 84.9V73.2zM70.3 38.8l10.5-5.6v30.9L70.3 38.8z" fill="#ee0b0b" data-fill-palette-color="accent"/></svg></g></svg></g></svg></g></svg></g></svg></g></svg></g><defs/></svg><rect width="395.52" height="247.2" fill="none" stroke="none" visibility="hidden"/></g></svg></g></svg>